<?xml version="1.0" encoding="utf-8"?>
<!-- Generator: Adobe Illustrator 14.0.0, SVG Export Plug-In . SVG Version: 6.00 Build 43363)  -->
<!DOCTYPE svg PUBLIC "-//W3C//DTD SVG 1.1//EN" "http://www.w3.org/Graphics/SVG/1.1/DTD/svg11.dtd">
<svg version="1.1" id="Layer_1" xmlns="http://www.w3.org/2000/svg" xmlns:xlink="http://www.w3.org/1999/xlink" x="0px" y="0px"
	 width="45.071px" height="70.938px" viewBox="0 0 45.071 70.938" enable-background="new 0 0 45.071 70.938" xml:space="preserve">
<g>
	<path fill="#FFFFFF" d="M45.071,70.938H0V0h45.071V70.938L45.071,70.938z M4.96,65.978h35.149V4.959H4.96V65.978L4.96,65.978z"/>
	<path fill="#FFFFFF" d="M26.087,46.084h4.264v4.263h-4.264V46.084z"/>
	<path fill="#FFFFFF" d="M28.136,25.415c-0.278-1.044-0.782-1.956-1.504-2.737c-0.725-0.779-1.532-1.322-2.427-1.63
		c-0.892-0.306-1.923-0.459-3.09-0.459h-2.132v4.012h2.212c0.837,0,1.478,0.133,1.924,0.397c0.444,0.267,0.772,0.627,0.982,1.086
		c0.21,0.461,0.335,1.003,0.376,1.629c0.042,0.629,0.062,1.291,0.062,1.986c0,0.753-0.02,1.436-0.062,2.051
		c-0.041,0.611-0.172,1.133-0.395,1.564c-0.227,0.432-0.573,0.774-1.049,1.023c-0.473,0.254-1.143,0.377-2.004,0.377h-2.05v-9.862
		h-4.263v25.494h4.263V38.729h2.174c1.589,0,2.869-0.271,3.848-0.815c0.973-0.546,1.753-1.302,2.34-2.28
		c0.501-0.807,0.827-1.677,0.98-2.61c0.151-0.933,0.229-2.056,0.229-3.364C28.552,27.877,28.412,26.462,28.136,25.415z"/>
	<rect x="14.718" y="24.601" fill="#FFFFFF" width="4.266" height="1.956"/>
</g>
</svg>
